# xmcd CD Database Entry
#
# Track frame offsets:
# 150
# 20492
# 35548
# 49255
# 65865
# 87398
# 107182
# 122061
# 131125
# 155089
# 164849
# 173960
# 185659
#
# Disc length: 2785 seconds
#
# Revision: 1
# Processed by: cddbd v1.4PL0 Copyright (c) Steve Scherf et al.
# Submitted via: tcd 2.0b
#
DISCID=c80adf0d
DTITLE=Geezer - Live Slow Die Old
DYEAR=1900
DGENRE=
TTITLE0=I Can't Get Next To You
TTITLE1=Shake It Up and Go
TTITLE2=Born In Chicago
TTITLE3=They're Everywhere
TTITLE4=I Can't Trust My Woman
TTITLE5=Take Me To The River
TTITLE6=Nobody But You
TTITLE7=Hold It Right There
TTITLE8=Wild Horses
TTITLE9=Born Under A Bad Sign
TTITLE10=Stray Cat Strut
TTITLE11=Personal Manager
TTITLE12=Life During Wartime
EXTD=
EXTT0=
EXTT1=
EXTT2=
EXTT3=
EXTT4=
EXTT5=
EXTT6=
EXTT7=
EXTT8=
EXTT9=
EXTT10=
EXTT11=
EXTT12=
PLAYORDER=
